<svg version="1.2" xmlns="http://www.w3.org/2000/svg" width="201" height="216"><defs><linearGradient id="a" gradientUnits="userSpaceOnUse"/><linearGradient id="b" x1="183.6" y1="110.2" x2="130.7" y2="-27.6" href="#a"><stop stop-color="#8d6b35"/><stop offset=".3" stop-color="#c9974c"/><stop offset=".6" stop-color="#fcc270"/><stop offset="1" stop-color="#c9974c"/></linearGradient><linearGradient id="c" x1="150" y1="240.7" x2="-23.8" y2="192.5" href="#a"><stop stop-color="#8d6b35"/><stop offset=".3" stop-color="#c9974c"/><stop offset=".6" stop-color="#fcc270"/><stop offset="1" stop-color="#c9974c"/></linearGradient></defs><path fill-rule="evenodd" d="M109.8.2h.5q.1 0 .2.1t.2.1l2.4 2.2q1.1 1.2 2.2 2.3 1.2 1.2 2.2 2.4 1.1 1.2 2.1 2.5 1.9 2.2 3.6 4.6 1.8 2.3 3.4 4.8 1.6 2.5 3 5 1.4 2.6 2.7 5.2c1.5 3.1 2.8 6.4 4.1 9.6l.2.4.6 1.6q.4.8.7 1.6.4.8.7 1.6.4.8.8 1.5l.1.2q.1.3.1.6l.2.6q.1.4.2.7 0 .3.1.6l.4.6c4.1 7.6 6.4 15.9 7.9 22.1q.3 1.2.5 2.2-.2-2.8-.2-5.7 0-2.9.1-5.8t.4-5.7q.3-2.9.7-5.8c.4-3.4 1.2-6.8 2-10.2l.1-.5q.2-.9.4-1.7.1-.9.3-1.7.1-.9.2-1.7.2-.9.3-1.7v-.2q.2-.4.3-.8.1-.5.3-.9.2-.4.3-.8l.4-.8.6-1.4.6 1.4q.6 1.3 1.1 2.6l.8 2.6q.4 1.3.7 2.7.3 1.4.5 2.7c1 6.7.8 14.3-.7 23-1.1 6.5-2.6 13.1-4.2 19.3l-1.2 5.2v.1l-.1.1v.1l-.1.1c0 .2-.2.3-.4.4q.5 3.1 1.2 6.2.6 3.1 1.4 6.1.7 3.1 1.5 6.1l1.8 6 1.4 3.8q.7 1.9 1.5 3.7.8 1.9 1.7 3.7.9 1.8 1.9 3.5-.9-4.8-1.2-9.8-.2-2.9-.3-5.9 0-3 .1-6t.3-5.9q.3-3 .7-5.9c.6-3.5 1.4-7 2-10.3l.1-.5c.5-2.2 1-4.5 1.3-6.8V76q.2-.4.3-.8.1-.4.3-.9.1-.4.3-.8.1-.4.3-.8l.7-1.4.6 1.3 1 2.6q.5 1.4.9 2.7.4 1.3.7 2.7.3 1.4.5 2.8c1.1 6.7.8 14.1-.6 22.9-1.2 6.5-2.8 13-4.3 19.3l-1.3 5.2V131.1q0 .1-.1.1v.1h-.1q3 5.1 6.7 9.7t7.9 8.7q4.3 4.1 9.1 7.5 4.7 3.5 9.9 6.3l-.6 1.4q-3.7-2-7.3-4.3-3.5-2.4-6.8-5.1-3.3-2.7-6.3-5.7t-5.7-6.3h-.2l-2.4.2q-1.2 0-2.4-.1t-2.4-.3q-1.2-.1-2.4-.4c-5.9-1.2-12.1-4.1-18.9-8.7-4.9-3.4-9.7-7.4-14.4-11.2l-3.9-3.2-.1-.1q0-.1-.1-.1v-.1q-.1-.1-.2-.3v-.3q0-.2.1-.3 0-.2.1-.3l.2-.2q.1-.1.2-.1h.5q1.5.2 3 .5t2.9.6q1.5.3 3 .7 1.5.4 2.9.9 2.6.8 5.1 1.8 2.5 1 5 2.2 2.4 1.2 4.8 2.5 2.3 1.3 4.6 2.8c2.7 1.7 5.2 3.8 7.8 5.7l.4.3q1.2.9 2.5 1.9-1.7-2.4-3.2-4.9-1.5-2.5-2.9-5-1.4-2.6-2.6-5.3-1.3-2.6-2.3-5.3-1.3-.4-2.5-.8-1.2-.3-2.3-.8-1.2-.5-2.3-1.1-1.2-.5-2.3-1.2c-5.4-3.2-10.4-7.9-15.6-14.6-3.9-5-7.4-10.3-10.9-15.5q-1.4-2.1-2.8-4.3l-.1-.1q0-.1-.1-.1v-.8q.1-.1.2-.3.1-.1.3-.2 0-.1.2-.1.1-.1.2-.1h.2q.1 0 .2.1 1.4.7 2.7 1.5 1.4.7 2.7 1.6l2.6 1.6q1.3.9 2.5 1.8 2.3 1.7 4.4 3.5 2.1 1.8 4.2 3.7 2 1.9 3.9 4 1.9 2 3.7 4.1c2.1 2.7 4 5.4 5.8 8.1l.3.4c.8 1.1 1.8 2.4 2.6 3.6l-1.6-6-1.6-6q-.7-3-1.3-6.1-.7-3-1.2-6.1-.2-1.3-.5-2.5-1.3-.4-2.5-.8T145 83q-1.2-.5-2.3-1.2-1.1-.6-2.2-1.3c-5.3-3.3-10.3-8.2-15.3-15.1-3.7-5-7.1-10.5-10.4-15.8l-2.8-4.4q0-.1-.1-.1v-.2q-.1-.2-.1-.3 0-.2.1-.4 0-.1.1-.3.1-.1.3-.2.1-.1.2-.1h.5q.1 0 .2.1 1.3.7 2.7 1.5 1.3.8 2.6 1.7 1.3.9 2.5 1.8 1.3.9 2.5 1.8 2.2 1.8 4.3 3.6 2.1 1.9 4.1 3.9 2 1.9 3.8 4 1.9 2.1 3.6 4.3c2 2.7 3.9 5.5 5.6 8.3l.3.4c1.2 1.7 2.4 3.5 3.8 5.3-.6-2.9-1.2-5.8-1.9-8.8-2.2-8.9-4.6-15.5-7.6-21.2l-.2-.1q-1.2-.6-2.3-1.4-1.1-.7-2.2-1.5t-2.1-1.7q-1-.8-1.9-1.8c-4.6-4.6-8.6-10.7-12.3-18.8-2.8-5.9-5.1-12.2-7.4-18.3q-.9-2.4-1.8-4.9l-.1-.1V1.4q-.1 0-.1-.1 0-.2.1-.3 0-.2.1-.3.1-.2.2-.3.2-.1.3-.2zm35.9 132.7c6.6 4.4 12.6 7.3 18.4 8.5q.7.1 1.5.3l1.4.2 1.4.2h1.5c-13.7-6-22.9-10.2-36-18.2 3.8 3 7.8 6.2 11.8 9zm20.3 4.4-.4-.3c-2.5-2-5.1-4-7.7-5.7q-2.3-1.4-4.6-2.7-2.3-1.3-4.7-2.5-2.4-1.1-4.9-2.1-2.5-1-5-1.8-3.9-1.3-7.9-2.1c15.5 9.8 24.6 14 40.5 21l-.1-.1q-.6-.4-1.3-.9-.7-.4-1.3-.9-.7-.5-1.3-1-.7-.4-1.3-.9zm5.1-31.3q.5-2.7.8-5.6.3-2.8.4-5.6.1-2.8-.1-5.6-.1-2.8-.5-5.6-.1-.8-.3-1.6-.1-.7-.3-1.5-.2-.8-.4-1.5-.2-.8-.4-1.5c-.2 16.9-.5 27.6-2.6 44.1 1.3-5.2 2.5-10.4 3.4-15.6zm-2.2-29.7v.1q-.1.9-.3 1.7-.1.9-.3 1.8-.1.8-.3 1.7-.2.9-.4 1.7l-.1.5c-.7 3.3-1.5 6.7-2 10.1q-.4 2.9-.7 5.9-.2 2.9-.3 5.8-.1 3-.1 5.9.1 2.9.3 5.9.3 4.5 1 8.9c2.8-19.7 3-30.7 3.2-50zm-34.5 21.6c5 6.5 10 11.1 15.2 14.3q.6.3 1.3.7.6.3 1.3.6.6.3 1.3.6.6.3 1.3.6c-11.4-10.3-19-17.3-29.3-29.2 2.8 4.2 5.8 8.4 8.9 12.4zm18 10.9-.3-.5c-1.8-2.6-3.7-5.4-5.8-7.9q-1.7-2.1-3.6-4.1-1.8-2-3.8-3.9-2-1.9-4.1-3.7-2.1-1.7-4.3-3.3-.9-.7-1.7-1.3-.9-.6-1.8-1.1-.8-.6-1.7-1.2l-1.8-1c12.1 14.4 19.7 21.4 33 33.3-1.5-1.7-2.8-3.6-4.1-5.3zm4.1 5.3v.1-.1zm-30.2-49.7c4.9 6.7 9.8 11.6 14.9 14.8q.6.4 1.2.7.7.4 1.3.7.7.4 1.3.7l1.4.6C134.9 71 127.8 64 117.8 51.8c2.7 4.2 5.5 8.6 8.5 12.6zM148 81.3q-.5-.7-1-1.3l-1-1.4q-.5-.6-1-1.3-.4-.7-.9-1.4l-.2-.4c-1.9-2.7-3.7-5.5-5.7-8.1q-1.7-2.2-3.5-4.3-1.8-2-3.8-4-1.9-2-4-3.8-2-1.8-4.2-3.6l-1.6-1.2q-.9-.6-1.7-1.2l-1.8-1.2q-.8-.5-1.7-1.1c11.7 14.8 19.1 22.1 32.2 34.5q-.1 0-.1-.1v-.1zm5.5-3.1c1.2-5.1 2.4-10.3 3.3-15.5 1.4-8.6 1.7-15.9.6-22.4q-.1-.8-.3-1.6-.1-.8-.3-1.5l-.4-1.6q-.2-.7-.5-1.5c-.1 16.4-.4 27.5-2.4 44.1zm-3.2-4.2q.4 4.5 1.1 9c2.7-19.8 3-30.9 3.2-50.1l-.1.1c-.2 2.4-.7 4.8-1.2 6.9l-.1.5c-.7 3.3-1.5 6.7-2 10.2q-.4 2.9-.7 5.8-.2 2.9-.4 5.9-.1 2.9 0 5.8 0 3 .2 5.9zm-30.5-49.6c3.5 7.8 7.5 13.8 11.9 18.3q.8.7 1.5 1.4.8.6 1.5 1.3l1.6 1.2q.9.6 1.7 1.1c-1-1.7-2.4-3.7-4.1-6.3-4.5-6.7-11.5-17.4-20.5-32.7 1.9 5.3 4 10.6 6.4 15.7zM135 40.5l1.3 1.8-1-2.2-.2-.6c-1.2-3-2.5-6.3-4.1-9.4q-1.2-2.6-2.6-5.1-1.4-2.5-3-4.9-1.5-2.5-3.2-4.8-1.7-2.3-3.6-4.5-3-3.6-6.3-6.9c10 17.5 17.9 29.3 22.7 36.6z" style="fill:url(#b)"/><path d="M122.1 191.2c-6.6 13.4-21.8 19-36.5 21.8-4.8 1-9.7 1.8-14.5 2.6h-.2c-.1 0-.2-.1-.2-.2v-.2q2.1-1.9 4.3-3.7 2.2-1.7 4.5-3.3 2.3-1.6 4.7-3 2.4-1.4 5-2.6 2.5-1.2 5.1-2.3 2.6-1.1 5.2-2 2.6-.9 5.3-1.7 2.7-.9 5.4-1.5 1.5-.3 2.9-.7 1.4-.4 2.8-.9t2.8-1.1l2.6-1.2-8.4-.2c-10.5-.1-21.1-.1-31.7-.4q-6.4-.2-12.7-.7c-6.1 8.9-17.7 10.7-28.6 11-3.6.2-7.2.1-10.7.1H29q0-.1-.1-.1l-.1-.1v-.2l.1-.1c8.7-5.9 19.2-8.7 30.2-9.5q1.1 0 2.1-.1l2-.2q1.1-.2 2.1-.4t2-.5l-2.4-.2q-1 0-2-.1l-2-.2q-1-.2-2-.3l-2-.4q-1-.1-2-.3-1-.2-1.9-.5-1-.3-1.9-.7-1-.3-1.9-.8h-.1q0-.1-.1-.1l-1-.2c-2.1-.9-4.3-1.5-6.5-2.3-3.4-1.1-6.8-2.2-10.1-3.6q-2.8-1.3-5.5-2.7-2.7-1.4-5.3-2.9-2.6-1.6-5.1-3.4-2.5-1.7-4.9-3.6-1.4-1.1-2.7-2.3-1.4-1.2-2.7-2.4l-2.6-2.4-2.4-2.6-.1-.1v-.2c0-.1 0-.2.2-.2h.1c7.7 3.4 15.4 6.3 23 9.7q2.7 1 5.3 2.3 2.6 1.3 5 2.7 2.5 1.5 4.9 3.1 2.4 1.6 4.6 3.4.9.7 1.7 1.4l1.6 1.4q.8.8 1.5 1.6.8.8 1.5 1.6c.2-.1.5.1.7.2q1 .4 2 .7 1 .4 2 .7 1.1.3 2.1.5 1.1.2 2.1.4 2 .3 4 .5 2.1.3 4.1.4 2 .2 4 .3 2.1.2 4.1.2 6.6.3 13.1.5-1.1-.4-2.1-.8-1.1-.4-2.2-.7-1.1-.3-2.1-.6-1.1-.3-2.2-.5l-2.4-.6-2.4-.6q-1.2-.4-2.4-.7-1.2-.4-2.3-.8-2.6-.9-5.1-2-2.6-1-5-2.3-2.4-1.2-4.8-2.7-2.3-1.4-4.5-3-1.3-.9-2.6-1.9-1.2-1-2.5-2-1.2-1-2.3-2.1-1.2-1.1-2.3-2.2-.1-.2-.1-.3c0-.1.1-.2.2-.2h.1c7.3 2.5 14.6 4.5 21.6 7q2.5.8 4.9 1.8 2.4 1 4.7 2.1 2.3 1.2 4.5 2.5 2.3 1.3 4.4 2.8l2.2 1.8q1 .9 2 1.9 1 .9 2 2 .9 1 1.8 2.1c5.9.2 11.8.2 17.7.2 7.4.1 14.8.2 22.2.4q-1.2-.6-2.5-1.1l-2.4-1q-1.3-.5-2.6-.9-1.2-.5-2.5-.8l-2.8-.8-2.8-1q-1.4-.4-2.7-1-1.4-.5-2.7-1.1-2.9-1.2-5.6-2.6-2.7-1.5-5.3-3.1-2.7-1.6-5.1-3.4-2.5-1.8-4.9-3.8-1.3-1.2-2.6-2.3-1.2-1.2-2.5-2.4-1.2-1.3-2.3-2.6-1.2-1.3-2.3-2.6H77v-.1l-.1-.1.1-.1q.2-.2.3-.1c8.1 3.5 16.5 6.4 24.5 9.9 7.2 3.1 14 6.8 19.9 11.9q1.2 1 2.2 2.1 1.1 1.1 2.1 2.2t2 2.4q.9 1.2 1.7 2.4l7.9.4q3.3.2 6.5.4l-.5 1.8c-7.1-.5-14.2-.7-21.5-.9z" style="fill:url(#c)"/><path d="M135.1 146q-1.5-.5-3-1.1l-3-1.2-3-1.4q-1.5-.7-2.9-1.4l-1.2 1.4-1.4 1.2q-.7.6-1.5 1.1-.8.6-1.6 1-.8.5-1.7.9-.9.5-1.8.8-.9.4-1.8.7-.9.3-1.9.5-1 .3-2.1.5-1 .2-2.1.4-1 .1-2.1.1-1.1.1-2.1 0-1.3 0-2.6-.2t-2.5-.5q-1.3-.3-2.5-.7-1.2-.4-2.4-.9c-6.6-3.1-10.5-9-8.7-12.5q.3-.3.5-.7.3-.3.7-.6.3-.3.7-.5.5-.2.9-.3 1-.3 2-.4l2-.2h2l2 .2 2.2.4 2.2.4q1.1.2 2.2.5 1.1.2 2.2.5c3 .7 6.1 1.5 9.4 2.4q2.6.7 5.3 1.5-4.8-2.7-9.3-5.9-4.5-3.3-8.7-6.9-4.2-3.6-8-7.7-3.8-4-7.1-8.4-1-.4-1.9-.8-1-.5-1.9-1l-1.8-1q-.9-.5-1.7-1.1-1-.7-1.9-1.5-.9-.7-1.7-1.5-.9-.8-1.7-1.7-.8-.8-1.6-1.7-.8-.8-1.6-1.8-.7-.9-1.4-1.9-.7-.9-1.3-2l-1.2-2q-.6-1.2-1.1-2.4-.5-1.2-.9-2.4t-.7-2.5q-.3-1.3-.4-2.5c-.7-6.7 2.5-10.6 6.3-9.2q.5.2.9.4.5.3.9.6l.8.6.7.7q.7.9 1.4 1.7l1.2 1.8q.6.9 1.1 1.8.6 1 1 2c1.3 2.6 2.5 5.3 3.6 8.1 1 2.9 2.2 5.7 3.2 8.8 1.2 3.1 2.2 6.3 3.3 9.8v.1q1.5 1.9 3 3.7 1.6 1.9 3.2 3.6 1.6 1.8 3.4 3.5 1.7 1.7 3.4 3.3-1-1.5-1.9-3.2l-1-1.8-.8-2-.8-2-.6-2q-.3-.9-.5-1.9-.2-1-.3-1.9-.2-1-.2-2-.1-.9 0-1.9 0-1 .1-1.9.1-1 .3-1.9.3-1 .6-1.9.4-.9.8-1.7c2.6-4.1 7-5 9.9-2.6q.4.3.7.6.3.4.5.7.3.4.5.8l.4.8q.3.9.5 1.7.3.9.4 1.8.2.8.3 1.7.1.9.1 1.8v1.8q0 .9-.1 1.9 0 .9-.1 1.8l-.2 1.8c-.3 2.5-.6 5.1-1.2 7.7q-.2 1-.4 2.1-.2 1-.5 2l-.6 2-.8 2q3.5 2.9 7.3 5.4 3.8 2.6 7.8 4.8 3.9 2.2 8.1 4.1 4.1 1.9 8.4 3.5z" style="fill:#fff"/></svg>