<svg xmlns="http://www.w3.org/2000/svg" xmlns:xlink="http://www.w3.org/1999/xlink" width="259.628" height="242.991"><defs><linearGradient id="a" x1=".26" y1=".221" x2=".973" y2="-.229" gradientUnits="objectBoundingBox"><stop offset="0" stop-color="#8d6b35"/><stop offset=".3" stop-color="#c9974c"/><stop offset=".6" stop-color="#fcc270"/><stop offset="1" stop-color="#c9974c"/></linearGradient><linearGradient id="b" x1="-.195" y1=".716" x2=".878" y2="1.308" xlink:href="#a"/></defs><g data-name="Group 5"><path data-name="&lt;Compound Path&gt;" d="M198.745 24.732A1.151 1.151 0 0 0 198.1 24a104.4 104.4 0 0 0-13.461-2.919 114.466 114.466 0 0 0-24.732-.73c-3.73.324-7.379.892-10.947 1.379l-.568.081a70.174 70.174 0 0 1-7.217.892h-.162q-1.3.324-2.676.73h-.73c-9.163.405-17.839 2.676-24.407 4.541q-1.054.324-2.189.73a119.886 119.886 0 0 0 20.11-12.65c2.838-2.27 5.514-4.622 8.109-6.974l.324-.405c1.7-1.541 3.487-3.081 5.433-4.541l.162-.081a26.774 26.774 0 0 0 2.27-2.838L148.308 0l-1.541.162A47.541 47.541 0 0 0 135.416 3a74.682 74.682 0 0 0-20.272 12.406c-5.271 4.3-10.217 9-15 13.542l-3.892 3.73a.782.782 0 0 0-.324.405 1.2 1.2 0 0 0-.081.568 192.6 192.6 0 0 1-25.3 7.379A99.83 99.83 0 0 1 53.6 43.138q4.865-1.784 9.568-4.054A114.893 114.893 0 0 0 84.006 26.11c2.838-2.27 5.514-4.7 8.109-6.974l.405-.405a59.633 59.633 0 0 1 5.433-4.541l.081-.162a19.962 19.962 0 0 0 2.352-2.757l.892-1.216-1.622.162A45.674 45.674 0 0 0 88.3 13.055c-6.568 2.514-13.217 6.568-20.272 12.406-5.19 4.3-10.136 9-14.92 13.542q-1.946 1.865-3.973 3.73a1.27 1.27 0 0 0-.243.324c-.081.081-.081.081-.081.162C31.705 43.138 14.92 38.922.892 30.894L0 32.111a96.911 96.911 0 0 0 33.976 11.514.33.33 0 0 1 .081.243 35.328 35.328 0 0 0 5.919 7.784C44.517 56.194 50.6 60 58.545 63.41c5.919 2.514 12.163 4.622 18.245 6.649q2.514.892 4.946 1.7a.872.872 0 0 0 .487.162 1.249 1.249 0 0 0 1.054-.73 1.072 1.072 0 0 0-.162-.973 77.653 77.653 0 0 0-9.163-8.676 86.155 86.155 0 0 0-19.38-12c-3.081-1.46-6.325-2.595-9.487-3.811l-.487-.162q-1.622-.569-3.162-1.214A105.784 105.784 0 0 0 66.167 43.3a36.045 36.045 0 0 0 8.676 6.082C80.763 52.3 87.98 54.247 96.9 55.3c6.568.73 13.379 1.054 19.947 1.3q2.757.162 5.433.243a.75.75 0 0 0 .487 0 1.043 1.043 0 0 0 .811-.973.809.809 0 0 0-.405-.811 93.686 93.686 0 0 0-11.839-5.676 97.724 97.724 0 0 0-22.867-5.919c-3.487-.487-7.055-.73-10.541-.973h-.568c-1.46-.162-3.081-.243-4.622-.487a232.065 232.065 0 0 0 24.894-7.46q1.3-.405 2.595-.892l.081.081a36.1 36.1 0 0 0 9 5.919c5.919 2.838 13.217 4.541 22.137 5.352 6.649.649 13.542.73 20.11.811l5.433.162a1.53 1.53 0 0 0 .486-.081 1.043 1.043 0 0 0 .811-.973 1.107 1.107 0 0 0-.487-.811 94.544 94.544 0 0 0-12-5.352 99.894 99.894 0 0 0-23.11-5.352c-3.487-.405-7.136-.568-10.622-.73h-.487a68.847 68.847 0 0 1-6.892-.487c3-.973 5.919-1.946 8.92-2.838a105.722 105.722 0 0 1 23.353-4.46l.162.162a43.13 43.13 0 0 0 10.54 4.055c6.811 1.541 14.6 1.865 23.84.892 6.892-.73 13.866-1.946 20.6-3.081q2.838-.487 5.6-.973a.872.872 0 0 0 .487-.162.981.981 0 0 0 .558-1.054ZM59.275 62.113c-7.784-3.325-13.7-7.136-18.082-11.514a27.393 27.393 0 0 1-3.811-4.541c13.136 8.676 22.056 14.434 36.651 21.488-4.946-1.622-9.974-3.406-14.758-5.433ZM43.868 46.95l.568.162c3.081 1.135 6.325 2.352 9.325 3.73A89.77 89.77 0 0 1 72.9 62.6a79.552 79.552 0 0 1 6.244 5.757c-17.515-8.19-26.434-13.947-41.76-24.083a.234.234 0 0 1 .162.081c2.108.973 4.3 1.784 6.325 2.595Zm25.218-20.516a73 73 0 0 1 19.786-12.082 55.957 55.957 0 0 1 6.328-1.865C80.033 21.326 70.627 27 57 37.3c3.892-3.649 7.865-7.379 12.082-10.866ZM96.98 13.055l-.081.081c-1.946 1.46-3.73 3.081-5.433 4.622l-.405.324c-2.595 2.352-5.19 4.784-8.028 6.974a111.157 111.157 0 0 1-20.515 12.731 93.159 93.159 0 0 1-8.676 3.73C70.059 29.029 79.871 23.11 96.98 13.055Zm.162 40.787c-8.676-.973-15.73-2.842-21.407-5.757a45.32 45.32 0 0 1-5.271-3.162c15.731 4.46 26.272 7.379 42.9 10.136-5.433-.243-10.866-.568-16.217-1.216Zm-20.028-9.974.568.081c3.487.243 6.973.487 10.46.892a99.592 99.592 0 0 1 22.458 5.92 72.478 72.478 0 0 1 8.028 3.649c-19.785-3-30.408-5.919-48.652-11.19h.162c2.352.324 4.784.568 6.973.649Zm54.653-.324c-8.757-.73-15.893-2.433-21.731-5.19a38.506 38.506 0 0 1-5.271-3.081c16.3 4.3 26.6 6.811 43.138 9.082-5.352-.162-10.785-.324-16.136-.811Zm-27.489-9.974c2.433.324 4.865.487 7.136.568h.487c3.487.162 7.055.324 10.46.73a97.111 97.111 0 0 1 22.786 5.271q4.217 1.541 8.109 3.406c-19.949-2.434-30.656-5.11-49.056-9.975h.081Zm-.243-6.244c3.892-3.73 7.865-7.46 12.082-10.866 6.892-5.675 13.383-9.649 19.783-12.081a47.138 47.138 0 0 1 6.325-1.946c-14.677 8.6-24.488 14.515-38.192 24.894Zm5.514.487q-4.217 2.027-8.676 3.649C117.09 18.974 126.9 13.055 144.092 3a.072.072 0 0 0-.081.081A63.805 63.805 0 0 0 138.5 7.7l-.405.324c-2.514 2.352-5.19 4.784-7.946 6.974a116.741 116.741 0 0 1-20.6 12.815Zm61.87.73c-9.082.973-16.623.649-23.272-.892a36.252 36.252 0 0 1-7.947-2.757c2.027 0 4.7.162 7.947.243 8.514.405 22.137 1.054 40.949.811-5.839 1.052-11.758 2.027-17.678 2.595Zm-23.11-4.784q-1.216-.081-2.352-.162l2.595-.324.568-.081c3.487-.568 7.136-1.135 10.785-1.379a110.6 110.6 0 0 1 24.326.73 96.794 96.794 0 0 1 9.73 1.946c-21.245.324-36.408-.324-45.652-.73Z" transform="rotate(8 31.411 448.653)" fill-rule="evenodd" fill="url(#a)"/><path data-name="&lt;Path&gt;" d="M20.84 19.245C23.6 34 36.814 43.49 50.193 50.22a286.4 286.4 0 0 0 13.3 6.325.072.072 0 0 0 .081.081.421.421 0 0 0 .324-.162q.081-.162 0-.243a75.55 75.55 0 0 0-14.354-17.029A104.577 104.577 0 0 0 31.3 26.218c-3.406-1.946-6.892-3.973-9.568-6.73L29.84 21.6c10.136 2.757 20.272 5.6 30.651 8.109q6.163 1.541 12.406 2.838c3.403 10.132 14.11 15.078 24.57 18.322 3.325 1.054 6.811 2.027 10.217 2.919l.081.081h.081l.162-.162a.16.16 0 0 0 .081-.243v-.081c-6.73-8.028-16.136-13.542-26.516-17.272a36.594 36.594 0 0 1-7.46-3.325q1.135.243 2.27.405a63.753 63.753 0 0 0 8.028 1.3 29.208 29.208 0 0 0 7.947-.243h.242a7.483 7.483 0 0 1 1.054.081 64.081 64.081 0 0 1 6.811-.487c3.568-.162 7.136-.324 10.785-.811a91.338 91.338 0 0 0 23.35-6.488 78.079 78.079 0 0 0 12.65-6.568q.162-.081.162-.162c0-.162 0-.243-.162-.243h-.081c-8.271 1.135-16.542 1.784-24.813 3a87.441 87.441 0 0 0-22.137 5.757 51.488 51.488 0 0 0-7.619 4.054 2.245 2.245 0 0 0-.73.081 37.368 37.368 0 0 1-8.514 0 146.326 146.326 0 0 1-15.974-3.081q-6.406-1.379-12.65-3a47.732 47.732 0 0 1 9-.243 79.2 79.2 0 0 0 9.812 0 75.847 75.847 0 0 0 21.326-4.46 70.831 70.831 0 0 0 11.6-5.271q.162-.081.162-.162c0-.081-.081-.243-.162-.243h-.081c-7.622.405-15.244.324-22.785.811a69.707 69.707 0 0 0-20.194 3.972 40.89 40.89 0 0 0-9.81 5.271c-5.757-1.46-11.433-3-17.028-4.541-7.219-1.946-14.354-3.892-21.572-5.676a58.986 58.986 0 0 1 10.7-.892 112.816 112.816 0 0 0 11.677-.73A84.074 84.074 0 0 0 60.9 7.325 77.418 77.418 0 0 0 72.978.432a.072.072 0 0 0 .082-.081.152.152 0 0 0 0-.243.16.16 0 0 0-.243-.081c-8.757 1.135-17.6 1.7-26.272 2.919C38.841 4 31.219 5.7 24.164 9.028A43.422 43.422 0 0 0 14.028 15.6q-3.811-.892-7.7-1.784-3.162-.73-6.325-1.3v1.865c6.973 1.378 13.866 3.081 20.839 4.865Z" transform="rotate(53 -68.82 90.919)" fill="url(#b)"/><path data-name="&lt;Path&gt;" d="M65.206 83.997a18.888 18.888 0 0 0-2.27 6.997 27.1 27.1 0 0 0-.086 7.787 28.035 28.035 0 0 0 2.175 8.149 27.436 27.436 0 0 0 6.008 8.44c5.278 5.02 12.177 6.367 14.68 3.438a4.539 4.539 0 0 0 .98-3.404c-.163-2.493-1.383-4.977-2.673-7.504a75.644 75.644 0 0 0-4.855-7.53q-2.643-3.803-5.698-7.865-1.616-2.157-3.37-4.4a110.15 110.15 0 0 0 39.178 20.086 28.135 28.135 0 0 0 6.343 5.304 39.818 39.818 0 0 0 8.355 4.074 37.541 37.541 0 0 0 9.334 2.2 27.543 27.543 0 0 0 10.238-.773c6.36-1.762 8.818-6.155 6.12-9.18a7.561 7.561 0 0 0-3.397-2.216 35.466 35.466 0 0 0-8.398-1.71 94.5 94.5 0 0 0-8.936-.231c-3.06 0-6.12 0-9.377.163a139.25 139.25 0 0 0-10.263.661.072.072 0 0 1-.112.026 108.86 108.86 0 0 1-18.023-6.96q1.925.437 3.756.722a40.04 40.04 0 0 0 8.484.043 27.61 27.61 0 0 0 7.615-1.934 15.364 15.364 0 0 0 6.073-4.524c2.879-3.842 2.097-8.252-1.264-10.065a7.717 7.717 0 0 0-3.49-.843 21.173 21.173 0 0 0-6.98 1.375 46.224 46.224 0 0 0-6.588 3.055 78.145 78.145 0 0 0-6.747 3.91 47.79 47.79 0 0 0-6.687 5.192 112.854 112.854 0 0 1-28.145-22.754l-1.162 1.095a102.054 102.054 0 0 0 9.182 9.176Z" fill="#fff"/></g></svg>