<svg data-name="Group 61" xmlns="http://www.w3.org/2000/svg" xmlns:xlink="http://www.w3.org/1999/xlink" width="210.831" height="273.178"><defs><linearGradient id="a" x1=".26" y1=".779" x2=".973" y2="1.229" gradientUnits="objectBoundingBox"><stop offset="0" stop-color="#8d6b35"/><stop offset=".3" stop-color="#c9974c"/><stop offset=".6" stop-color="#fcc270"/><stop offset="1" stop-color="#c9974c"/></linearGradient><linearGradient id="b" x1="-.195" y1=".284" x2=".878" y2="-.308" xlink:href="#a"/></defs><path data-name="&lt;Compound Path&gt;" d="M198.745 47.193a1.151 1.151 0 0 1-.649.73 104.4 104.4 0 0 1-13.461 2.919 114.466 114.466 0 0 1-24.732.73c-3.73-.324-7.379-.892-10.947-1.379l-.568-.081a70.174 70.174 0 0 0-7.217-.892h-.162q-1.3-.324-2.676-.73h-.73c-9.163-.405-17.839-2.676-24.407-4.541q-1.054-.324-2.189-.73a119.886 119.886 0 0 1 20.11 12.65c2.838 2.27 5.514 4.622 8.109 6.974l.324.405c1.7 1.541 3.487 3.081 5.433 4.541l.162.081a26.774 26.774 0 0 1 2.27 2.838l.892 1.216-1.541-.162a47.541 47.541 0 0 1-11.352-2.838 74.682 74.682 0 0 1-20.272-12.406c-5.271-4.3-10.217-9-15-13.542l-3.892-3.73a.782.782 0 0 1-.324-.405 1.2 1.2 0 0 1-.081-.568 192.6 192.6 0 0 0-25.3-7.379A99.829 99.829 0 0 0 53.6 28.786q4.865 1.784 9.568 4.054a114.893 114.893 0 0 1 20.838 12.974c2.838 2.27 5.514 4.7 8.109 6.974l.405.405a59.632 59.632 0 0 0 5.433 4.541l.081.162a19.962 19.962 0 0 1 2.352 2.757l.892 1.216-1.622-.162A45.674 45.674 0 0 1 88.3 58.87c-6.564-2.514-13.213-6.57-20.268-12.407-5.19-4.3-10.136-9-14.92-13.542q-1.946-1.865-3.973-3.73a1.27 1.27 0 0 1-.243-.324c-.081-.081-.081-.081-.081-.162C31.705 28.786 14.92 33 .892 41.03L0 39.814A96.911 96.911 0 0 1 33.976 28.3a.33.33 0 0 0 .081-.243 35.328 35.328 0 0 1 5.919-7.784C44.517 15.731 50.6 11.92 58.545 8.514 64.464 6 70.708 3.892 76.79 1.865Q79.3.973 81.736.162A.872.872 0 0 1 82.222 0a1.249 1.249 0 0 1 1.054.73 1.072 1.072 0 0 1-.162.973 77.654 77.654 0 0 1-9.163 8.676 86.155 86.155 0 0 1-19.38 12c-3.081 1.46-6.325 2.595-9.487 3.811l-.487.162q-1.622.568-3.162 1.216a105.784 105.784 0 0 1 24.732 1.054 36.045 36.045 0 0 1 8.676-6.082c5.919-2.919 13.136-4.865 22.056-5.919 6.568-.73 13.379-1.054 19.947-1.3q2.757-.162 5.433-.243a.75.75 0 0 1 .487 0 1.043 1.043 0 0 1 .811.973.809.809 0 0 1-.405.811 93.686 93.686 0 0 1-11.839 5.676 97.724 97.724 0 0 1-22.867 5.919c-3.487.487-7.055.73-10.541.973h-.568c-1.46.162-3.081.243-4.622.487a232.066 232.066 0 0 1 24.894 7.46q1.3.405 2.595.892l.081-.081a36.1 36.1 0 0 1 9-5.919c5.919-2.838 13.217-4.541 22.137-5.352 6.649-.649 13.542-.73 20.11-.811l5.433-.162a1.53 1.53 0 0 1 .486.081 1.043 1.043 0 0 1 .811.973 1.107 1.107 0 0 1-.487.811 94.544 94.544 0 0 1-12 5.352 99.894 99.894 0 0 1-23.11 5.352c-3.487.405-7.136.568-10.622.73h-.487a68.846 68.846 0 0 0-6.892.487c3 .973 5.919 1.946 8.92 2.838a105.723 105.723 0 0 0 23.353 4.46l.162-.162a43.13 43.13 0 0 1 10.541-4.054c6.811-1.541 14.6-1.865 23.84-.892 6.892.73 13.866 1.946 20.6 3.081q2.838.487 5.6.973a.872.872 0 0 1 .487.162.981.981 0 0 1 .558 1.057ZM59.275 9.812c-7.784 3.325-13.7 7.136-18.082 11.514a27.392 27.392 0 0 0-3.811 4.541c13.135-8.676 22.055-14.434 36.651-21.488C69.086 6 64.059 7.785 59.275 9.812ZM43.868 24.975l.568-.162c3.081-1.135 6.325-2.352 9.325-3.73A89.77 89.77 0 0 0 72.9 9.325a79.552 79.552 0 0 0 6.244-5.757c-17.515 8.19-26.434 13.947-41.76 24.083a.234.234 0 0 0 .162-.081c2.108-.973 4.3-1.784 6.325-2.595ZM69.086 45.49a73 73 0 0 0 19.786 12.082 55.957 55.957 0 0 0 6.328 1.865C80.033 50.6 70.627 44.922 57 34.624 60.9 38.273 64.87 42 69.086 45.49ZM96.98 58.87l-.081-.081c-1.946-1.46-3.73-3.081-5.433-4.622l-.405-.324c-2.595-2.352-5.19-4.784-8.028-6.974a111.157 111.157 0 0 0-20.515-12.731 93.159 93.159 0 0 0-8.676-3.73C70.059 42.9 79.871 48.815 96.98 58.87Zm.162-40.787c-8.676.973-15.731 2.838-21.407 5.757a45.32 45.32 0 0 0-5.27 3.16c15.731-4.46 26.272-7.379 42.9-10.136-5.433.243-10.866.568-16.217 1.216Zm-20.028 9.973.568-.081c3.487-.243 6.973-.487 10.46-.892a99.592 99.592 0 0 0 22.458-5.919 72.477 72.477 0 0 0 8.028-3.649c-19.785 3-30.408 5.919-48.652 11.19h.162c2.352-.324 4.784-.568 6.973-.649Zm54.653.324c-8.757.73-15.893 2.433-21.731 5.19a38.506 38.506 0 0 0-5.271 3.081c16.3-4.3 26.6-6.811 43.138-9.082-5.352.162-10.785.324-16.136.811Zm-27.489 9.974c2.433-.324 4.865-.487 7.136-.568h.487c3.487-.162 7.055-.324 10.46-.73a97.111 97.111 0 0 0 22.786-5.271q4.217-1.541 8.109-3.406c-19.947 2.433-30.651 5.108-49.058 9.974h.081Zm-.243 6.244c3.892 3.73 7.865 7.46 12.082 10.866 6.892 5.676 13.379 9.649 19.785 12.082a47.138 47.138 0 0 0 6.325 1.946C127.55 60.9 117.739 54.977 104.035 44.6Zm5.514-.487q-4.217-2.027-8.676-3.649C117.09 52.95 126.9 58.87 144.092 68.924a.072.072 0 0 1-.081-.081 63.8 63.8 0 0 1-5.514-4.622l-.405-.324c-2.514-2.352-5.19-4.784-7.946-6.974a116.742 116.742 0 0 0-20.597-12.811Zm61.87-.73c-9.082-.973-16.623-.649-23.272.892a36.252 36.252 0 0 0-7.947 2.757c2.027 0 4.7-.162 7.947-.243 8.514-.405 22.137-1.054 40.949-.811-5.839-1.053-11.758-2.027-17.678-2.594Zm-23.11 4.784q-1.216.081-2.352.162l2.595.324.568.081c3.487.568 7.136 1.135 10.785 1.379a110.6 110.6 0 0 0 24.326-.73 96.793 96.793 0 0 0 9.73-1.946c-21.245-.324-36.408.324-45.652.73Z" transform="scale(-1) rotate(24 253.762 -500.079)" fill-rule="evenodd" fill="url(#a)"/><path data-name="&lt;Path&gt;" d="M20.84 37.381C23.6 22.623 36.814 13.136 50.193 6.406a286.4 286.4 0 0 1 13.3-6.325.072.072 0 0 1 .079-.081.421.421 0 0 1 .328.162q.081.162 0 .243a75.55 75.55 0 0 1-14.356 17.029A104.577 104.577 0 0 1 31.3 30.408c-3.406 1.946-6.892 3.973-9.568 6.73l8.108-2.108c10.136-2.757 20.272-5.6 30.651-8.109q6.163-1.541 12.409-2.838C76.3 13.947 87.007 9 97.467 5.757c3.325-1.054 6.811-2.027 10.217-2.919l.081-.081h.081l.162.162a.16.16 0 0 1 .081.243v.081c-6.73 8.028-16.136 13.542-26.516 17.272a36.6 36.6 0 0 0-7.46 3.325q1.135-.243 2.27-.405a63.754 63.754 0 0 1 8.028-1.3 29.208 29.208 0 0 1 7.947.243h.242a7.483 7.483 0 0 0 1.054-.081 64.081 64.081 0 0 0 6.811.487c3.568.162 7.136.324 10.785.811a91.338 91.338 0 0 1 23.35 6.488 78.079 78.079 0 0 1 12.65 6.568q.162.081.162.162c0 .162 0 .243-.162.243h-.081c-8.271-1.135-16.542-1.784-24.813-3a87.441 87.441 0 0 1-22.132-5.756 51.488 51.488 0 0 1-7.624-4.055 2.245 2.245 0 0 1-.73-.081 37.367 37.367 0 0 0-8.514 0 146.326 146.326 0 0 0-15.974 3.081q-6.406 1.379-12.65 3a47.732 47.732 0 0 0 9 .243 79.2 79.2 0 0 1 9.812 0 75.847 75.847 0 0 1 21.326 4.46 70.831 70.831 0 0 1 11.6 5.271q.162.081.162.162c0 .081-.081.243-.162.243h-.081c-7.622-.405-15.244-.324-22.785-.811a69.707 69.707 0 0 1-20.194-3.972 40.89 40.89 0 0 1-9.81-5.271c-5.757 1.46-11.433 3-17.028 4.541C29.353 37.057 22.218 39 15 40.787a58.986 58.986 0 0 0 10.7.892 112.815 112.815 0 0 1 11.677.73A84.074 84.074 0 0 1 60.9 49.3a77.418 77.418 0 0 1 12.082 6.892.072.072 0 0 1 .081.081.152.152 0 0 1 0 .243.16.16 0 0 1-.243.081c-8.757-1.135-17.6-1.7-26.272-2.919-7.7-1.054-15.325-2.757-22.38-6.082a43.422 43.422 0 0 1-10.14-6.566q-3.811.892-7.7 1.784-3.162.73-6.325 1.3v-1.867c6.973-1.378 13.866-3.081 20.839-4.865Z" transform="rotate(159 78.437 128.496)" fill="url(#b)"/><path data-name="&lt;Path&gt;" d="M164.268 150.799a18.888 18.888 0 0 1-1.784 7.135 27.1 27.1 0 0 1-4.055 6.65 28.035 28.035 0 0 1-6.163 5.757 27.436 27.436 0 0 1-9.572 3.973c-7.136 1.46-13.7-1.054-14.271-4.865a4.539 4.539 0 0 1 .973-3.406c1.46-2.027 3.811-3.487 6.244-4.946a75.645 75.645 0 0 1 8.113-3.813q4.257-1.824 9-3.649 2.514-.973 5.19-1.946a110.149 110.149 0 0 1-43.868-3.73 28.135 28.135 0 0 1-8.19 1.135 39.818 39.818 0 0 1-9.244-.973 37.541 37.541 0 0 1-9.082-3.081 27.543 27.543 0 0 1-8.271-6.082c-4.46-4.863-4.216-9.891-.324-11.026a7.561 7.561 0 0 1 4.054-.081 35.466 35.466 0 0 1 8.028 3 94.5 94.5 0 0 1 7.7 4.541c2.595 1.622 5.19 3.243 7.866 5.108a139.25 139.25 0 0 1 8.352 6 .072.072 0 0 0 .081.081 108.859 108.859 0 0 0 18.974 3.649q-1.865-.649-3.568-1.378a40.04 40.04 0 0 1-7.217-4.46 27.609 27.609 0 0 1-5.433-5.676 15.364 15.364 0 0 1-2.757-7.055c-.402-4.783 2.599-8.108 6.41-7.864a7.717 7.717 0 0 1 3.406 1.135 21.173 21.173 0 0 1 5.19 4.865 46.224 46.224 0 0 1 3.973 6.082 78.145 78.145 0 0 1 3.649 6.892 47.79 47.79 0 0 1 2.922 7.947 112.854 112.854 0 0 0 35.922-4.379l.405 1.541a102.054 102.054 0 0 1-12.653 2.919Z" fill="#fff"/></svg>