<svg xmlns="http://www.w3.org/2000/svg" width="112" height="126" fill="none"><path d="M77.035 83.25c13.408-21.04 11.722-18.415 12.109-18.963a40.302 40.302 0 0 0 7.462-23.435C96.606 18.452 78.429 0 56 0 33.644 0 15.395 18.416 15.395 40.852a40.513 40.513 0 0 0 7.675 23.734L34.964 83.25C22.248 85.204.63 91.028.63 103.852c0 4.674 3.051 11.336 17.586 16.527C28.365 124.004 41.783 126 56 126c26.584 0 55.371-7.499 55.371-22.148 0-12.826-21.593-18.644-34.336-20.602ZM29.237 60.526a3.807 3.807 0 0 0-.127-.187 33.123 33.123 0 0 1-6.333-19.487c0-18.462 14.866-33.47 33.223-33.47 18.319 0 33.223 15.015 33.223 33.47a32.959 32.959 0 0 1-6.066 19.114c-.355.469 1.5-2.413-27.157 42.554L29.237 60.526ZM56 118.617c-29.038 0-47.988-8.535-47.988-14.765 0-4.188 9.737-11.073 31.315-13.757l13.56 21.278a3.692 3.692 0 0 0 6.226 0l13.56-21.278c21.578 2.684 31.315 9.569 31.315 13.757 0 6.177-18.78 14.765-47.988 14.765Z" fill="#777777"/><path d="M56 22.395c-10.177 0-18.457 8.28-18.457 18.457 0 10.177 8.28 18.457 18.457 18.457 10.177 0 18.457-8.28 18.457-18.457 0-10.178-8.28-18.457-18.457-18.457Zm0 29.53c-6.106 0-11.074-4.967-11.074-11.073 0-6.107 4.968-11.075 11.074-11.075s11.074 4.968 11.074 11.075c0 6.106-4.968 11.074-11.074 11.074Z" fill="#777777"/></svg>