<svg xmlns="http://www.w3.org/2000/svg" width="158.588" height="82.106"><path data-name="&lt;Path&gt;" d="M20.355 42.423a29.425 29.425 0 0 0 2.584 11.161 42.217 42.217 0 0 0 6.132 10.47 43.675 43.675 0 0 0 9.442 9.135 42.742 42.742 0 0 0 14.796 6.45c11.075 2.467 21.374-1.27 22.362-7.19a7.071 7.071 0 0 0-1.423-5.332c-2.219-3.197-5.842-5.535-9.591-7.875a117.845 117.845 0 0 0-12.527-6.156q-6.581-2.958-13.92-5.93-3.89-1.583-8.031-3.172a171.6 171.6 0 0 0 68.434-4.617 43.831 43.831 0 0 0 12.726 1.991 62.032 62.032 0 0 0 14.424-1.264 58.484 58.484 0 0 0 14.23-4.553 42.909 42.909 0 0 0 13.048-9.247c7.08-7.457 6.837-15.295.805-17.169a11.779 11.779 0 0 0-6.313-.236c-4.436.807-8.511 2.63-12.586 4.455-4.078 2.077-8.034 4.281-12.121 6.864-4.086 2.455-8.172 4.91-12.391 7.742-4.217 2.706-8.564 5.663-13.172 9.12a.112.112 0 0 1-.129.124 169.589 169.589 0 0 1-29.653 5.166q2.922-.96 5.594-2.05a62.377 62.377 0 0 0 11.363-6.751 43.012 43.012 0 0 0 8.617-8.694 23.935 23.935 0 0 0 4.491-10.914c.757-7.439-3.826-12.698-9.769-12.423a12.022 12.022 0 0 0-5.336 1.675 32.985 32.985 0 0 0-8.216 7.437 72.011 72.011 0 0 0-6.354 9.364 123.058 123.058 0 0 0-5.872 10.638 74.451 74.451 0 0 0-4.763 12.298 175.814 175.814 0 0 1-55.832-7.796L.73 37.532a158.988 158.988 0 0 0 19.625 4.89Z" fill="#fff"/></svg>