<svg xmlns="http://www.w3.org/2000/svg" width="158.588" height="82.106"><path data-name="&lt;Path&gt;" d="M138.247 42.408a29.43 29.43 0 0 1-2.59 11.163 42.223 42.223 0 0 1-6.138 10.467 43.681 43.681 0 0 1-9.447 9.132 42.748 42.748 0 0 1-14.804 6.443c-11.077 2.463-21.377-1.282-22.362-7.2a7.072 7.072 0 0 1 1.426-5.333c2.22-3.196 5.844-5.532 9.596-7.87a117.862 117.862 0 0 1 12.53-6.153q6.585-2.954 13.926-5.923 3.89-1.583 8.034-3.17a171.625 171.625 0 0 1-68.44-4.648 43.837 43.837 0 0 1-12.728 1.986 62.041 62.041 0 0 1-14.426-1.271 58.492 58.492 0 0 1-14.23-4.56A42.915 42.915 0 0 1 5.55 26.218c-7.077-7.461-6.831-15.3-.797-17.172a11.78 11.78 0 0 1 6.313-.233c4.436.809 8.512 2.635 12.586 4.461 4.078 2.08 8.034 4.286 12.12 6.87 4.085 2.457 8.171 4.916 12.39 7.75 4.216 2.708 8.562 5.667 13.17 9.127a.112.112 0 0 0 .127.124 169.614 169.614 0 0 0 29.657 5.182q-2.922-.962-5.594-2.054a62.386 62.386 0 0 1-11.362-6.756 43.018 43.018 0 0 1-8.614-8.7A23.938 23.938 0 0 1 61.058 13.9C60.3 6.457 64.886 1.199 70.83 1.477a12.024 12.024 0 0 1 5.339 1.678 32.989 32.989 0 0 1 8.214 7.441 72.022 72.022 0 0 1 6.35 9.369A122.336 122.336 0 0 1 96.6 30.601a74.462 74.462 0 0 1 4.759 12.303 175.84 175.84 0 0 0 55.845-7.768l.673 2.389a159.011 159.011 0 0 1-19.63 4.883Z" fill="#fff"/></svg>