<svg xmlns="http://www.w3.org/2000/svg" width="43.793" height="50.702"><g data-name="Group 41"><g data-name="Group 40"><g data-name="Group 39"><path data-name="Path 1" d="M40.5 19.5 10.554 1.041A6.924 6.924 0 0 0 0 6.941v36.75A7 7 0 0 0 6.909 50.7h.031a6.948 6.948 0 0 0 3.59-1.08 1.977 1.977 0 0 0-2.059-3.375 3.034 3.034 0 0 1-1.54.5 3.072 3.072 0 0 1-2.976-3.06V6.937a2.97 2.97 0 0 1 4.526-2.53l29.945 18.46a2.97 2.97 0 0 1-.013 5.066L16.762 41.19a1.977 1.977 0 1 0 2.065 3.372l21.648-13.255A6.924 6.924 0 0 0 40.5 19.5Z" fill="#fff"/></g></g></g></svg>