<svg xmlns="http://www.w3.org/2000/svg" width="377.597" height="297.737"><defs><linearGradient id="a" x1=".26" y1=".221" x2=".973" y2="-.229" gradientUnits="objectBoundingBox"><stop offset="0" stop-color="#8d6b35"/><stop offset=".3" stop-color="#c9974c"/><stop offset=".6" stop-color="#fcc270"/><stop offset="1" stop-color="#c9974c"/></linearGradient></defs><path data-name="&lt;Compound Path&gt;" d="M339.223 57.011a2.549 2.549 0 0 0-1.107-1.682 139.446 139.446 0 0 0-22.975-6.729 145.165 145.165 0 0 0-42.213-1.682c-6.366.748-12.595 2.056-18.684 3.178l-.969.187a90.387 90.387 0 0 1-12.318 2.056h-.277q-2.215.748-4.567 1.682h-1.246c-15.639.935-30.448 6.169-41.659 10.468q-1.8.748-3.737 1.682a207.661 207.661 0 0 0 34.329-29.16c4.844-5.234 9.411-10.655 13.84-16.075l.55-.936c2.906-3.551 5.951-7.1 9.273-10.468l.277-.187a62.28 62.28 0 0 0 3.875-6.545l1.522-2.8-2.63.374a64.641 64.641 0 0 0-19.376 6.542c-11.349 5.982-22.7 15.328-34.6 28.6-9 9.907-17.439 20.748-25.6 31.216l-6.643 8.6a1.811 1.811 0 0 0-.554.935 3.664 3.664 0 0 0-.138 1.308c-13.979 6.542-28.511 13.085-43.181 17.01a128.726 128.726 0 0 1-28.926 4.86 159.47 159.47 0 0 0 16.326-9.345 198.192 198.192 0 0 0 35.569-29.908c4.844-5.234 9.411-10.842 13.84-16.075l.692-.935a116.765 116.765 0 0 1 9.273-10.468l.138-.374a45.231 45.231 0 0 0 4.014-6.355l1.522-2.8-2.768.374a62.1 62.1 0 0 0-19.376 6.542c-11.211 5.795-22.56 15.141-34.6 28.6-8.858 9.907-17.3 20.748-25.466 31.216q-3.322 4.3-6.782 8.6a3.032 3.032 0 0 0-.415.748c-.138.187-.138.187-.138.374a134.891 134.891 0 0 1-81.8-28.412L0 74.021a139.057 139.057 0 0 0 57.99 26.543.939.939 0 0 1 .138.561 83.8 83.8 0 0 0 10.1 17.945c7.75 10.468 18.131 19.253 31.694 27.1 10.1 5.795 20.76 10.655 31.14 15.328q4.29 2.056 8.442 3.925a1.251 1.251 0 0 0 .83.374 2.256 2.256 0 0 0 1.8-1.682 3.2 3.2 0 0 0-.277-2.243 160.744 160.744 0 0 0-15.639-20 148.352 148.352 0 0 0-33.074-27.662c-5.259-3.365-10.8-5.982-16.193-8.785l-.83-.374q-2.768-1.308-5.4-2.8a134.36 134.36 0 0 0 42.213-2.43 65.4 65.4 0 0 0 14.809 14.019c10.1 6.729 22.421 11.215 37.645 13.645 11.211 1.682 22.836 2.43 34.047 2.991q4.706.374 9.273.561a.969.969 0 0 0 .83 0 2.32 2.32 0 0 0 1.384-2.243 2.147 2.147 0 0 0-.692-1.869 146.858 146.858 0 0 0-20.207-13.085A133.536 133.536 0 0 0 151 100.191c-5.951-1.122-12.041-1.682-17.992-2.243h-.969c-2.491-.374-5.259-.561-7.889-1.122 14.394-4.3 28.788-10.842 42.489-17.2q2.214-.935 4.429-2.056l.138.187a63.778 63.778 0 0 0 15.363 13.645c10.1 6.542 22.56 10.468 37.784 12.337 11.349 1.5 23.113 1.682 34.324 1.869q4.706.187 9.273.374a2.007 2.007 0 0 0 .83-.187 2.32 2.32 0 0 0 1.384-2.243 2.834 2.834 0 0 0-.83-1.869 144.889 144.889 0 0 0-20.483-12.337A134.6 134.6 0 0 0 209.4 77.012c-5.951-.935-12.179-1.308-18.131-1.682h-.83a87.582 87.582 0 0 1-11.764-1.122c5.121-2.243 10.1-4.486 15.224-6.542 15.778-6.168 28.234-9.346 39.86-10.281l.277.374a63.575 63.575 0 0 0 17.992 9.346c11.626 3.552 24.912 4.3 40.69 2.056 11.764-1.682 23.667-4.486 35.154-7.1q4.844-1.122 9.55-2.243a1.251 1.251 0 0 0 .83-.374 2.506 2.506 0 0 0 .971-2.433Zm-238.051 86.172c-13.287-7.664-23.39-16.449-30.864-26.543a62.523 62.523 0 0 1-6.5-10.468c22.421 20 37.645 33.272 62.558 49.534a274.925 274.925 0 0 1-25.189-12.524Zm-26.3-34.955.969.374c5.259 2.617 10.8 5.421 15.916 8.6a154.1 154.1 0 0 1 32.663 27.1 162.763 162.763 0 0 1 10.657 13.272C105.185 138.7 89.961 125.425 63.8 102.06a.372.372 0 0 1 .277.187c3.6 2.243 7.335 4.112 10.8 5.981Zm43.043-47.291c11.626-12.9 22.7-22.057 33.77-27.851a77.853 77.853 0 0 1 10.8-4.3C136.6 49.161 120.548 62.245 97.3 85.984c6.643-8.412 13.425-17.01 20.622-25.048Zm47.61-30.842-.138.187c-3.322 3.365-6.366 7.1-9.273 10.655l-.692.748c-4.429 5.421-8.858 11.028-13.7 16.075a191.5 191.5 0 0 1-35.016 29.347A141.168 141.168 0 0 1 91.9 95.7c27.68-28.786 44.427-42.431 73.63-65.61Zm.277 94.022c-14.809-2.243-26.85-6.542-36.538-13.272a77.043 77.043 0 0 1-9-7.29c26.85 10.281 44.842 17.01 73.215 23.365a273.577 273.577 0 0 1-27.68-2.8Zm-34.182-22.992.969.187c5.951.561 11.9 1.122 17.854 2.056a136.4 136.4 0 0 1 38.337 13.645 111.708 111.708 0 0 1 13.7 8.412c-33.77-6.916-51.9-13.645-83.041-25.8h.277a91.96 91.96 0 0 0 11.9 1.5Zm93.283-.748c-14.947-1.682-27.127-5.608-37.092-11.963a64.8 64.8 0 0 1-9-7.1c27.819 9.907 45.4 15.7 73.63 20.935-9.135-.374-18.407-.748-27.542-1.869Zm-46.918-22.991a94.792 94.792 0 0 0 12.179 1.308h.83c5.951.374 12.041.748 17.854 1.682a130.841 130.841 0 0 1 38.891 12.15 137.183 137.183 0 0 1 13.84 7.851c-34.046-5.607-52.315-11.777-83.733-22.991h.138Zm-.415-14.393c6.643-8.6 13.425-17.2 20.622-25.048 11.764-13.085 22.836-22.244 33.77-27.851a66.086 66.086 0 0 1 10.8-4.486c-25.051 19.814-41.8 33.459-65.187 57.385Zm9.411 1.121a142.617 142.617 0 0 1-14.809 8.412c27.68-28.786 44.428-42.432 73.768-65.61q-.138 0-.138.187a125.122 125.122 0 0 0-9.411 10.655l-.692.748c-4.29 5.421-8.858 11.028-13.563 16.075a201.317 201.317 0 0 1-35.155 29.533Zm105.6 1.682c-15.5 2.243-28.372 1.5-39.721-2.056a52.146 52.146 0 0 1-13.56-6.355c3.46 0 8.027.374 13.563.561 14.532.935 37.784 2.43 69.893 1.869a280.04 280.04 0 0 1-30.174 5.985Zm-39.444-11.028q-2.076-.187-4.014-.374l4.429-.748.969-.187a148.516 148.516 0 0 1 18.407-3.178 140.286 140.286 0 0 1 41.521 1.682 128.249 128.249 0 0 1 16.608 4.486c-36.261.748-62.142-.748-77.92-1.682Z" transform="rotate(-25.97 322.394 74.342)" fill-rule="evenodd" fill="url(#a)"/></svg>