<svg data-name="Component 1 – 1" xmlns="http://www.w3.org/2000/svg" width="323.901" height="327.758"><g data-name="Group 6" opacity=".36" fill="#0a3b37"><path data-name="&lt;Compound Path&gt;" d="M205.945 289.479a.977.977 0 0 1-1 .035 91.934 91.934 0 0 1-12.485-7.27 107.176 107.176 0 0 1-19.624-17.16c-2.547-2.9-5.012-5.986-7.38-8.984l-.288-.443a74.133 74.133 0 0 0-5.01-5.896l-.096-.177a25.032 25.032 0 0 1-1.446-2.486l-.562-.524c-6.76-6.923-11.76-15.085-15.33-21.302q-.674-1.154-1.255-2.222a118.368 118.368 0 0 1 6.037 24.979c.588 3.876.814 7.763 1.041 11.652l.019.542a76.876 76.876 0 0 0 .811 7.677l.007.176a31.592 31.592 0 0 1-.314 3.997l-.215 1.639-1.134-1.32a43.964 43.964 0 0 1-6.525-10.461c-3.23-6.864-5.328-15.037-6.396-24.875-.799-7.312-1.152-14.82-1.401-21.965q-.195-2.983-.3-5.969a1.71 1.71 0 0 1 .072-.546c-.006-.18.168-.368.343-.555a223.568 223.568 0 0 0-13.897-24.34 105.886 105.886 0 0 0-11.446-13.827q2.345 4.901 4.251 10.18a121.945 121.945 0 0 1 6.428 25.78c.498 3.88.728 7.858 1.041 11.652l.02.543c.179 2.53.36 5.151.72 7.68l.007.18a20.375 20.375 0 0 1-.223 3.994l-.305 1.642-1.043-1.232a50.117 50.117 0 0 1-6.62-10.552c-3.23-6.863-5.234-14.948-6.393-24.784-.802-7.401-1.061-14.822-1.405-22.06l-.209-5.971a.583.583 0 0 1-.015-.453.261.261 0 0 1 .084-.184c-13.202-12.224-29.174-20.727-45.965-24.128l.212-1.728a94.166 94.166 0 0 1 34.589 14.92.7.7 0 0 1 .268-.1 33.238 33.238 0 0 1 10.428-2.266c6.777-.509 14.339.677 22.956 3.547 6.418 2.131 12.766 4.9 18.93 7.584l5.15 2.175a1.42 1.42 0 0 1 .372.26 1.2 1.2 0 0 1 .32 1.347.917.917 0 0 1-.796.571 84.866 84.866 0 0 1-13.566.746 92.925 92.925 0 0 1-23.787-3.972c-3.48-1.056-6.79-2.481-10.097-3.725l-.552-.253q-1.56-.58-3.305-1.243a108.032 108.032 0 0 1 18.229 18.663 39.957 39.957 0 0 1 11.188 1.24c6.766 1.757 13.686 5.326 21.309 10.854 5.678 4.145 11.098 8.85 16.417 13.283q2.152 1.919 4.299 3.747a1.025 1.025 0 0 1 .374.349 1.112 1.112 0 0 1-.133 1.363.861.861 0 0 1-.893.394 85.38 85.38 0 0 1-13.27-3.795 100.517 100.517 0 0 1-22.055-11.462c-3.065-2.158-5.96-4.503-8.757-6.852l-.465-.346c-1.211-.959-2.606-1.993-3.908-3.035a264.507 264.507 0 0 1 13.62 24.17q.59 1.338 1.268 2.583l.09-.003a34.956 34.956 0 0 1 11.291 1.599c6.772 1.938 13.607 5.686 21.06 11.496 5.585 4.244 10.917 9.041 16.065 13.755l4.3 3.837a.583.583 0 0 1 .284.352 1.1 1.1 0 0 1-.043 1.36 1.022 1.022 0 0 1-.99.307 85.947 85.947 0 0 1-13.193-4.16 105.508 105.508 0 0 1-21.805-12.104c-2.98-2.252-5.868-4.688-8.585-7.13l-.466-.346c-1.773-1.478-3.64-3.044-5.685-4.513 1.553 2.935 3.107 5.87 4.747 8.804 5.113 8.881 9.687 15.246 14.67 20.417l.275.081a40.522 40.522 0 0 1 11.111 4.232c6.374 3.494 12.54 8.896 18.965 16.373 4.814 5.536 9.283 11.545 13.564 17.376q1.713 2.386 3.519 4.77a4.427 4.427 0 0 1 .287.443 1.2 1.2 0 0 1-.405 1.373Zm-79.337-131.327c-8.433-2.787-15.813-3.979-22.41-3.476a36.763 36.763 0 0 0-6.4.947c16.57 2.324 27.681 3.927 44.242 8.513-5.056-2.09-10.297-4.262-15.432-5.985Zm-23.141 1.532.549.162c3.217 1.338 6.617 2.67 10.006 3.728a93.205 93.205 0 0 0 23.422 3.894q4.535.114 9.053-.225c-19.59-5.749-30.704-7.445-49.913-10.036l.094.088a64.519 64.519 0 0 1 6.788 2.39Zm4.124 35.106c1.059 9.568 3.15 17.558 6.283 24.244a46.659 46.659 0 0 0 3.385 6.134c-4.985-18.22-8.017-29.802-10.83-48.097.206 5.879.504 11.849 1.162 17.719Zm11.508 31.217-.003-.091a59.143 59.143 0 0 1-.728-7.857l-.11-.54c-.223-3.794-.45-7.689-.944-11.474a122.964 122.964 0 0 0-6.324-25.42q-1.705-4.744-3.858-9.289c3.127 21.998 6.262 33.94 11.967 54.67Zm30.445-33.773c-7.439-5.444-14.174-8.928-20.76-10.692a39.276 39.276 0 0 0-6.38-1.046c15.395 7.526 25.723 12.693 40.466 22.326-4.295-3.655-8.772-7.304-13.326-10.588Zm-22.777-6.181.469.437c2.797 2.258 5.688 4.604 8.659 6.674a95.709 95.709 0 0 0 21.687 11.293 79.88 79.88 0 0 0 8.886 2.77c-17.446-11.804-27.775-16.97-45.747-25.675a.08.08 0 0 1 .095.088c2.13 1.374 4.088 2.94 5.951 4.412Zm41.707 39.589c-7.264-5.636-14.009-9.387-20.505-11.245a34.609 34.609 0 0 0-6.389-1.317c15.688 8.15 25.48 13.52 39.964 23.52-4.215-3.748-8.607-7.581-13.075-10.96Zm-28.492-11.42a59.155 59.155 0 0 1 5.864 4.6l.375.348c2.8 2.349 5.603 4.788 8.579 6.95a100.207 100.207 0 0 0 21.445 12.025 75.376 75.376 0 0 0 8.802 2.955c-17.19-12.266-27.351-17.8-45.16-27.055a.261.261 0 0 1 .096.178Zm-4.9 4.975c.296 5.88.595 11.848 1.253 17.715 1.062 9.658 3.06 17.562 6.193 24.248a46.86 46.86 0 0 0 3.476 6.13c-4.876-17.68-8.012-29.621-10.922-48.094Zm4.655 3.553q-1.797-4.74-3.949-9.285c3.218 22.085 6.353 34.026 12.057 54.664l-.003-.09c-.453-2.612-.639-5.325-.814-7.764l-.02-.543c-.223-3.794-.449-7.689-1.037-11.561a118.378 118.378 0 0 0-6.234-25.424Zm48.105 43.894c-6.236-7.298-12.308-12.528-18.5-16.026a44.329 44.329 0 0 0-8.275-3.426c1.592 1.485 3.737 3.222 6.353 5.482 6.909 5.834 17.745 15.153 32.083 28.785-3.709-5.035-7.6-10.065-11.661-14.815Zm-21.372-12.662-1.867-1.566 1.705 2.115.38.53c2.277 2.91 4.65 6 7.288 8.897a106.842 106.842 0 0 0 19.254 16.904q4.361 2.929 8.887 5.393c-16.04-15.658-28.178-25.921-35.648-32.274Z" fill-rule="evenodd"/><path data-name="&lt;Path&gt;" d="M133.952 88.31c2.958-16.502 17.61-27.203 32.507-34.72 4.836-2.523 9.79-4.899 14.8-7.207l.141-.114c.129.014.312.098.3.224q.113.141.042.198a82.691 82.691 0 0 1-15.932 19.2 121.507 121.507 0 0 1-20.274 14.553c-3.835 2.174-7.685 4.476-10.722 7.634q4.576-1.259 9.08-2.46c11.348-3.124 22.704-6.375 34.22-9.29q6.882-1.722 13.861-3.181c3.71-11.398 15.634-16.974 27.232-20.655 3.8-1.211 7.712-2.281 11.498-3.365l.07-.058.058.071a.29.29 0 0 1 .312.098.261.261 0 0 1 .043.198l-.014.128c-7.516 9.002-17.963 15.247-29.556 19.506a34.6 34.6 0 0 0-8.325 3.828q1.257-.32 2.571-.568a75.522 75.522 0 0 1 8.907-1.379 27.538 27.538 0 0 1 8.94.098 1.055 1.055 0 0 1 .312.098l1.046-.148c2.604.337 5.179.354 7.74.495 3.976.16 7.953.32 11.961.805a102.551 102.551 0 0 1 26.176 7.127 104.184 104.184 0 0 1 14.199 7.16.524.524 0 0 1 .157.34c.058.07.043.198-.154.242l-.127-.014c-9.275-1.232-18.478-1.941-27.683-3.23a92.952 92.952 0 0 1-24.783-6.278 57.777 57.777 0 0 1-8.543-4.507c-.269.1-.58.004-.835-.023a42.163 42.163 0 0 0-9.537.03 170.47 170.47 0 0 0-17.828 3.477q-7.135 1.698-14.157 3.537a56.853 56.853 0 0 0 10.035.15 106.08 106.08 0 0 1 11.02-.064 84.613 84.613 0 0 1 23.915 4.767 82.876 82.876 0 0 1 12.912 5.865q.185.084.171.212c.043.198-.027.254-.097.312l-.128-.014c-8.589-.383-17.039-.309-25.364-.794a77.29 77.29 0 0 1-22.678-4.253 44.216 44.216 0 0 1-10.973-5.919c-6.429 1.708-12.729 3.43-19.043 5.279-8.023 2.185-16.048 4.37-23.988 6.37 3.896.924 7.954.896 11.933 1.062a87.602 87.602 0 0 1 12.995.784 90.722 90.722 0 0 1 26.337 7.468 82.201 82.201 0 0 1 13.5 7.607.261.261 0 0 1 .185.084.2.2 0 0 1-.026.251q-.083.185-.211.171c-9.855-1.228-19.71-1.875-29.435-3.093-8.64-1.165-17.142-3.022-25-6.685a49.919 49.919 0 0 1-11.407-7.318l-8.589 2.064q-3.561.785-7.052 1.513l-.04-2.065c7.772-1.632 15.515-3.588 23.328-5.602ZM133.904 140.766a113.189 113.189 0 0 1 14.367 1.81 21.829 21.829 0 0 1 4.645-6.795 30.1 30.1 0 0 1 6.849-5.355 28.647 28.647 0 0 1 8.752-3.641 29.448 29.448 0 0 1 11.43-.546c8.086 1.261 14 6.442 13.133 10.647a5.251 5.251 0 0 1-2.286 3.199c-2.387 1.532-5.4 2.208-8.518 2.819a85.276 85.276 0 0 1-9.95.78c-3.532.166-7.065.33-10.817.37q-3.012.017-6.219-.005a124.038 124.038 0 0 1 44.512 20.866 39.1 39.1 0 0 1 9.032 1.931 56.5 56.5 0 0 1 9.349 4.667 39.328 39.328 0 0 1 8.228 6.684 31.174 31.174 0 0 1 6.41 9.567c2.743 6.937.547 12.09-3.969 11.782a10.8 10.8 0 0 1-4.293-1.5 37.417 37.417 0 0 1-7.27-6.3c-2.192-2.388-4.259-4.996-6.35-7.694-2.005-2.721-4.098-5.419-6.178-8.402a172.51 172.51 0 0 1-6.502-9.534l-.025-.088a126.836 126.836 0 0 0-18.357-11.127q1.606 1.329 3.062 2.796a37.957 37.957 0 0 1 5.816 7.47 25.958 25.958 0 0 1 3.502 7.943 16.643 16.643 0 0 1 .269 8.495c-1.426 5.213-5.938 7.543-9.82 5.833a8.448 8.448 0 0 1-3.075-2.51 21.186 21.186 0 0 1-3.54-7.086 62.736 62.736 0 0 1-1.898-7.934c-.425-2.798-.875-5.679-1.065-8.641a45.519 45.519 0 0 1-.059-9.403l.088-.025a124.141 124.141 0 0 0-39.414-9.329Z"/></g></svg>